<svg xmlns="http://www.w3.org/2000/svg" width="60" height="54" viewBox="0 0 60 54" fill="none">
  <path d="M21.5625 5.4H38.4375C38.9531 5.4 39.375 5.805 39.375 6.3V10.8H20.625V6.3C20.625 5.805 21.0469 5.4 21.5625 5.4ZM15 6.3V10.8H7.5C3.36328 10.8 0 14.0288 0 18V28.8H22.5H37.5H60V18C60 14.0288 56.6367 10.8 52.5 10.8H45V6.3C45 2.82375 42.0586 0 38.4375 0H21.5625C17.9414 0 15 2.82375 15 6.3ZM60 32.4H37.5V36C37.5 37.9913 35.8242 39.6 33.75 39.6H26.25C24.1758 39.6 22.5 37.9913 22.5 36V32.4H0V46.8C0 50.7713 3.36328 54 7.5 54H52.5C56.6367 54 60 50.7713 60 46.8V32.4Z" fill="#4C5461"/>
</svg>