<svg xmlns="http://www.w3.org/2000/svg" width="60" height="60" viewBox="0 0 60 60" fill="none">
  <path d="M29.9063 36C24.5625 36 20.1562 31.6875 20.25 26.25C20.25 20.9063 24.5625 16.5 29.9063 16.5C35.25 16.5 39.6562 20.9063 39.6562 26.25C39.6562 31.6875 35.3438 36 29.9063 36ZM34.5938 39C42 39 48 44.625 48 51.5625C48 52.9688 46.7813 54 45.2813 54H14.625C13.125 54 12 52.9688 12 51.5625C12 44.625 17.9062 39 25.3125 39H34.5938ZM48 21C43.7813 21 40.5 17.7188 40.5 13.5C40.5 9.375 43.7813 6 48 6C52.125 6 55.5 9.375 55.5 13.5C55.5 17.7188 52.125 21 48 21ZM17.1562 26.25C17.1562 29.4375 18.375 32.3438 20.3438 34.5H1.59375C0.65625 34.5 0 33.75 0 32.8125C0 27.9375 3.65625 24 8.25 24H13.9688C15.1875 24 16.3125 24.2812 17.3438 24.8438C17.25 25.3125 17.1562 25.7812 17.1562 26.25ZM12 21C7.78125 21 4.5 17.7188 4.5 13.5C4.5 9.375 7.78125 6 12 6C16.125 6 19.5 9.375 19.5 13.5C19.5 17.7188 16.125 21 12 21ZM51.6563 24C56.25 24 60 27.9375 60 32.8125C60 33.75 59.25 34.5 58.3125 34.5H39.5625C41.5312 32.3438 42.6562 29.4375 42.6562 26.25C42.6562 25.7812 42.5625 25.3125 42.5625 24.8438C43.5938 24.375 44.7188 24 45.9375 24H51.6563Z" fill="#2E3238"/>
</svg>