<svg xmlns="http://www.w3.org/2000/svg" width="60" height="54" viewBox="0 0 60 54" fill="none">
  <path d="M27 6.75132C27 8.53409 26.3906 10.1481 25.3875 11.3507L27.9094 17.4163C29.0531 17.0576 30.2531 16.8677 31.5 16.8677C35.1563 16.8677 38.475 18.5028 40.9031 21.1612L48.1781 15.1588C48.0563 14.6314 48 14.0723 48 13.5026C48 9.77886 50.6906 6.75132 54 6.75132C57.3094 6.75132 60 9.77886 60 13.5026C60 17.2264 57.3094 20.254 54 20.254C52.8469 20.254 51.7594 19.8847 50.8406 19.2413L43.5656 25.2436C44.4844 27.2901 45 29.6109 45 32.0582C45 34.0098 44.6719 35.8769 44.0719 37.5964L50.3813 41.8582C51.3844 41.0037 52.6406 40.4974 53.9906 40.4974C57.3 40.4974 59.9906 43.5249 59.9906 47.2487C59.9906 50.9725 57.3 54 53.9906 54C50.6813 54 47.9906 50.9725 47.9906 47.2487C47.9906 46.89 48.0188 46.5419 48.0656 46.2043L41.7469 41.9426C39.2813 45.2022 35.6063 47.2592 31.5 47.2592C24.8063 47.2592 19.2563 41.7843 18.1875 34.6005H11.5594C10.6688 37.0795 8.5125 38.8201 6 38.8201C2.69063 38.8201 0 35.7925 0 32.0688C0 28.345 2.69063 25.3174 6 25.3174C8.52188 25.3174 10.6781 27.058 11.5594 29.537H18.1875C18.8063 25.4124 20.8969 21.8468 23.8313 19.5683L21.3094 13.4921C21.2063 13.5026 21.1031 13.5026 21 13.5026C17.6906 13.5026 15 10.4751 15 6.75132C15 3.02754 17.6906 0 21 0C24.3094 0 27 3.02754 27 6.75132ZM31.5 42.1957C32.6819 42.1957 33.8522 41.9338 34.9442 41.4249C36.0361 40.9159 37.0282 40.17 37.864 39.2296C38.6997 38.2892 39.3626 37.1729 39.8149 35.9442C40.2672 34.7155 40.5 33.3987 40.5 32.0688C40.5 30.7389 40.2672 29.422 39.8149 28.1933C39.3626 26.9647 38.6997 25.8483 37.864 24.9079C37.0282 23.9675 36.0361 23.2216 34.9442 22.7127C33.8522 22.2037 32.6819 21.9418 31.5 21.9418C30.3181 21.9418 29.1478 22.2037 28.0559 22.7127C26.9639 23.2216 25.9718 23.9675 25.136 24.9079C24.3003 25.8483 23.6374 26.9647 23.1851 28.1933C22.7328 29.422 22.5 30.7389 22.5 32.0688C22.5 33.3987 22.7328 34.7155 23.1851 35.9442C23.6374 37.1729 24.3003 38.2892 25.136 39.2296C25.9718 40.17 26.9639 40.9159 28.0559 41.4249C29.1478 41.9338 30.3181 42.1957 31.5 42.1957Z" fill="#4C5461"/>
</svg>