<svg width="221" height="42" viewBox="0 0 221 42" fill="none" xmlns="http://www.w3.org/2000/svg">
<g clip-path="url(#clip0_446_11287)">
<path d="M174.397 34.888V32.648H173.718V32.256H175.501V32.648H174.81V34.888H174.386H174.397ZM175.891 34.888V32.256H176.459L177.094 34.216H177.139L177.763 32.256H178.32V34.888H177.93V32.9168H177.897L177.272 34.888H176.949L176.325 32.9168H176.292V34.888H175.902H175.891ZM44.8976 34.888H32.3165C29.5751 34.888 27.4578 34.16 25.9646 32.6928C24.4714 31.2256 23.7247 29.12 23.7247 26.3648V16.744C23.7247 13.9888 24.4714 11.8832 25.9646 10.416C27.4578 8.9488 29.5751 8.2208 32.3165 8.2208H36.4284C39.1698 8.2208 41.2871 8.9488 42.7803 10.416C44.2735 11.8832 45.0202 13.9888 45.0202 16.744V23.3856C45.0202 23.9904 44.5298 24.4832 43.9281 24.4832L30.2437 24.5056V26.2192C30.2437 27.3056 30.4778 28.0784 30.9458 28.5488C31.4138 29.0192 32.205 29.2544 33.3082 29.2544H43.8167C44.541 29.2544 44.9087 29.6352 44.9087 30.408V34.9104L44.8976 34.888ZM30.2883 20.0368H38.5123V16.9568C38.5123 15.8368 38.2894 15.0528 37.8325 14.6048C37.3868 14.1568 36.5956 13.9216 35.4924 13.9216H33.3082C32.1939 13.9216 31.4138 14.1456 30.9681 14.6048C30.5223 15.064 30.2883 15.848 30.2883 16.9568V20.0368ZM103.457 34.888H90.8761C88.1348 34.888 86.0175 34.16 84.5242 32.6928C83.031 31.2256 82.2844 29.12 82.2844 26.3648V16.744C82.2844 13.9888 83.031 11.8832 84.5242 10.416C86.0175 8.9488 88.1348 8.2208 90.8761 8.2208H94.9881C97.7294 8.2208 99.8467 8.9488 101.34 10.416C102.833 11.8832 103.58 13.9888 103.58 16.744V23.3856C103.58 23.9904 103.09 24.4832 102.488 24.4832L88.8034 24.5056V26.2192C88.8034 27.3056 89.0374 28.0784 89.5054 28.5488C89.9735 29.0192 90.7647 29.2544 91.8679 29.2544H102.376C103.101 29.2544 103.468 29.6352 103.468 30.408V34.9104L103.457 34.888ZM88.848 20.0368H97.072V16.9568C97.072 15.8368 96.8491 15.0528 96.3922 14.6048C95.9464 14.1568 95.1553 13.9216 94.052 13.9216H91.8679C90.7535 13.9216 89.9735 14.1456 89.5277 14.6048C89.082 15.064 88.848 15.848 88.848 16.9568V20.0368ZM52.4752 34.888H46.9592V8.2096H52.4752C53.077 8.2096 53.5673 8.7024 53.5673 9.3072V11.088C53.5673 11.088 54.7151 8.2096 58.8717 8.2096L61.7801 8.2432V12.9248C61.7801 13.3392 61.7021 13.6304 61.5461 13.7872C61.3901 13.944 61.145 13.9664 60.7438 13.9664H57.1556C54.7597 13.9664 53.5673 15.3216 53.5673 18.0432V33.7904C53.5673 34.3952 53.077 34.888 52.4752 34.888ZM80.7354 30.2288V34.888H71.3191C68.5778 34.888 66.4605 34.16 64.9672 32.6928C63.474 31.2256 62.7274 29.12 62.7274 26.3648V16.744C62.7274 13.9888 63.474 11.8832 64.9672 10.416C66.4605 8.9488 68.5778 8.2208 71.3191 8.2208H80.7354V12.9248C80.7354 13.3056 80.6574 13.5744 80.5014 13.7312C80.3454 13.888 80.0557 13.9664 79.6433 13.9664H72.3666C71.2857 13.9664 70.5167 14.2016 70.0487 14.672C69.5807 15.1424 69.3467 15.9376 69.3467 17.0464V26.04C69.3467 27.16 69.5807 27.944 70.0487 28.4144C70.5167 28.8848 71.2857 29.12 72.3666 29.12H79.6433C80.2451 29.12 80.7354 29.6128 80.7354 30.2176V30.2288ZM110.99 42L105.474 41.9776V8.2096H110.99C111.592 8.2096 112.082 8.7024 112.082 9.3072V10.4272C112.082 10.4272 113.063 8.2096 116.083 8.2096H119.515C122.19 8.2096 124.207 8.9376 125.577 10.4048C126.948 11.872 127.628 13.9776 127.628 16.7328V26.3536C127.628 29.1088 126.948 31.2144 125.577 32.6816C124.207 34.1488 122.19 34.8768 119.515 34.8768H116.083C113.297 34.8768 112.082 32.7376 112.082 32.7376V40.936C112.082 41.6304 111.715 41.9776 110.99 41.9776V42ZM115.671 29.1312H117.955C119.069 29.1312 119.849 28.896 120.329 28.4256C120.797 27.9552 121.031 27.16 121.031 26.0512V17.0576C121.031 15.9376 120.797 15.1536 120.329 14.6832C119.861 14.2128 119.069 13.9776 117.955 13.9776H115.671C113.275 13.9776 112.082 15.2992 112.082 17.9536V25.1664C112.082 27.8208 113.275 29.1424 115.671 29.1424V29.1312ZM129.466 13.9664C129.054 13.9664 128.764 13.8992 128.608 13.7536C128.452 13.6192 128.374 13.3392 128.374 12.9136V8.2096H132.119V0.4368H137.635C138.236 0.4368 138.727 0.9296 138.727 1.5344V8.2096H144.967V12.9136C144.967 13.2944 144.889 13.5632 144.733 13.72C144.577 13.8768 144.287 13.9552 143.875 13.9552H138.727V26.0848C138.727 27.1712 138.972 27.944 139.451 28.4144C139.941 28.8848 140.733 29.12 141.847 29.12H143.931C144.533 29.12 145.023 29.6128 145.023 30.2176V34.8656H140.755C138.014 34.8656 135.885 34.1376 134.381 32.6704C132.876 31.2032 132.119 29.1088 132.119 26.3984V13.9552H129.466V13.9664ZM146.806 4.8048L146.772 0.0559998H152.344C153.035 0.0559998 153.381 0.392 153.381 1.0528L153.414 4.8048C153.414 5.3872 152.946 5.8464 152.378 5.8464H147.853C147.274 5.8464 146.817 5.376 146.817 4.8048H146.806ZM146.784 33.7904V8.2432L152.3 8.2096C152.901 8.2096 153.392 8.7024 153.392 9.3072V34.8768H147.876C147.274 34.8768 146.784 34.384 146.784 33.7792V33.7904ZM154.729 8.2208H160.379C161.07 8.2208 161.493 8.5904 161.627 9.3184L166.296 28.0112L170.831 9.3184C170.965 8.5904 171.4 8.2208 172.135 8.2208H177.819L170.943 33.7456C170.809 34.5184 170.33 34.8992 169.539 34.8992H162.931C162.206 34.8992 161.738 34.5184 161.527 33.7456L154.74 8.2208H154.729ZM20.0808 2.3408C18.5987 0.8624 16.4925 0.112 13.7846 0.112H0V12.5776H6.60816V5.8688H12.6926C13.8069 5.8688 14.587 6.104 15.0327 6.5744C15.4785 7.0448 15.7125 7.84 15.7125 8.9488V14.4816C15.7125 15.568 15.4896 16.3408 15.0327 16.8112C14.587 17.2816 13.7958 17.5168 12.6926 17.5168H0V34.8768H5.51608C6.11784 34.8768 6.60816 34.384 6.60816 33.7792V23.3184H13.7846C16.4925 23.3184 18.5875 22.5792 20.0808 21.1008C21.574 19.6224 22.3206 17.5168 22.3206 14.7952V8.6352C22.3206 5.9136 21.574 3.8192 20.0808 2.3296V2.3408Z" fill="#00306B"/>
<path d="M195.136 6.5856H214.448L216.175 0H193.91C189.943 0 185.864 3.2368 184.817 7.224L181.34 20.4736H187.903L190.6 10.192C191.124 8.1984 193.163 6.5744 195.147 6.5744L195.136 6.5856Z" fill="#72B840"/>
<path d="M214.448 6.5856L211.751 16.8672C211.227 18.8608 209.188 20.4848 207.204 20.4848H187.892L186.165 27.0704H208.43C212.397 27.0704 216.476 23.8336 217.523 19.8464L221 6.5968H214.436L214.448 6.5856Z" fill="#72B840"/>
</g>
<defs>
<clipPath id="clip0_446_11287">
<rect width="221" height="42" fill="white"/>
</clipPath>
</defs>
</svg>
